HIERARCHY
ROOT Hips
{
	OFFSET 0.053599 88.859886 3.107447
	CHANNELS 6 Xposition Yposition Zposition Zrotation Yrotation Xrotation 
	JOINT Spine
	{
		OFFSET -0.000000 8.814246 -2.080107
		CHANNELS 3 Zrotation Yrotation Xrotation
		JOINT Spine1
		{
			OFFSET 0.000000 8.844141 0.000000
			CHANNELS 3 Zrotation Yrotation Xrotation
			JOINT Spine2
			{
				OFFSET -0.000000 11.682268 0.000000
				CHANNELS 3 Zrotation Yrotation Xrotation
				JOINT Spine3
				{
					OFFSET 0.000000 11.746700 0.000000
					CHANNELS 3 Zrotation Yrotation Xrotation
					JOINT Neck
					{
						OFFSET -0.000000 17.658264 -0.000000
						CHANNELS 3 Zrotation Yrotation Xrotation
						JOINT Neck1
						{
							OFFSET -0.000000 5.101515 -0.000000
							CHANNELS 3 Zrotation Yrotation Xrotation
							JOINT Head
							{
								OFFSET 0.000000 5.101515 0.000000
								CHANNELS 3 Zrotation Yrotation Xrotation
								JOINT HeadEnd
								{
									OFFSET 0.000000 11.655085 0.000000
									CHANNELS 3 Zrotation Yrotation Xrotation
									End Site
									{
										OFFSET 0.000000 0.000000 0.000000
									}
								}
							}
						}
					}
					JOINT RightShoulder
					{
						OFFSET -2.625389 11.175210 0.000000
						CHANNELS 3 Zrotation Yrotation Xrotation
						JOINT RightArm
						{
							OFFSET -0.000000 10.434715 -0.000000
							CHANNELS 3 Zrotation Yrotation Xrotation
							JOINT RightForeArm
							{
								OFFSET -0.000000 29.628420 0.000000
								CHANNELS 3 Zrotation Yrotation Xrotation
								JOINT RightHand
								{
									OFFSET -0.000000 22.857611 0.000000
									CHANNELS 3 Zrotation Yrotation Xrotation
									JOINT RightHandThumb1
									{
										OFFSET -2.867323 3.959563 2.944291
										CHANNELS 3 Zrotation Yrotation Xrotation
										JOINT RightHandThumb2
										{
											OFFSET 0.000000 3.350399 0.000000
											CHANNELS 3 Zrotation Yrotation Xrotation
											JOINT RightHandThumb3
											{
												OFFSET 0.000000 3.756509 -0.000000
												CHANNELS 3 Zrotation Yrotation Xrotation
												JOINT RightHandThumb4
												{
													OFFSET 0.000000 3.147345 0.000000
													CHANNELS 3 Zrotation Yrotation Xrotation
													End Site
													{
														OFFSET 0.000000 0.000000 0.000000
													}
												}
											}
										}
									}
									JOINT RightHandIndex1
									{
										OFFSET -0.086752 10.030893 2.345280
										CHANNELS 3 Zrotation Yrotation Xrotation
										JOINT RightHandIndex2
										{
											OFFSET -0.000000 4.061090 0.000000
											CHANNELS 3 Zrotation Yrotation Xrotation
											JOINT RightHandIndex3
											{
												OFFSET -0.000000 3.248873 0.000000
												CHANNELS 3 Zrotation Yrotation Xrotation
												JOINT RightHandIndex4
												{
													OFFSET 0.000000 2.639709 -0.000000
													CHANNELS 3 Zrotation Yrotation Xrotation
													End Site
													{
														OFFSET 0.000000 0.000000 0.000000
													}
												}
											}
										}
									}
									JOINT RightHandMiddle1
									{
										OFFSET 0.104102 9.502952 0.006768
										CHANNELS 3 Zrotation Yrotation Xrotation
										JOINT RightHandMiddle2
										{
											OFFSET 0.000000 4.568727 0.000000
											CHANNELS 3 Zrotation Yrotation Xrotation
											JOINT RightHandMiddle3
											{
												OFFSET 0.000000 3.654981 -0.000000
												CHANNELS 3 Zrotation Yrotation Xrotation
												JOINT RightHandMiddle4
												{
													OFFSET -0.000000 2.741236 -0.000000
													CHANNELS 3 Zrotation Yrotation Xrotation
													End Site
													{
														OFFSET 0.000000 0.000000 0.000000
													}
												}
											}
										}
									}
									JOINT RightHandRing1
									{
										OFFSET 0.086752 8.921708 -2.267442
										CHANNELS 3 Zrotation Yrotation Xrotation
										JOINT RightHandRing2
										{
											OFFSET -0.000000 4.061090 0.000000
											CHANNELS 3 Zrotation Yrotation Xrotation
											JOINT RightHandRing3
											{
												OFFSET 0.000000 3.654981 -0.000000
												CHANNELS 3 Zrotation Yrotation Xrotation
												JOINT RightHandRing4
												{
													OFFSET 0.000000 2.741236 -0.000000
													CHANNELS 3 Zrotation Yrotation Xrotation
													End Site
													{
														OFFSET 0.000000 0.000000 0.000000
													}
												}
											}
										}
									}
									JOINT RightHandPinky1
									{
										OFFSET -0.173504 7.976997 -4.467199
										CHANNELS 3 Zrotation Yrotation Xrotation
										JOINT RightHandPinky2
										{
											OFFSET 0.000000 3.350399 -0.000000
											CHANNELS 3 Zrotation Yrotation Xrotation
											JOINT RightHandPinky3
											{
												OFFSET -0.000000 2.842763 0.000000
												CHANNELS 3 Zrotation Yrotation Xrotation
												JOINT RightHandPinky4
												{
													OFFSET -0.000000 2.639709 0.000000
													CHANNELS 3 Zrotation Yrotation Xrotation
													End Site
													{
														OFFSET 0.000000 0.000000 0.000000
													}
												}
											}
										}
									}
									JOINT RightForeArmEnd
									{
										OFFSET 0.000000 0.000000 0.000000
										CHANNELS 3 Zrotation Yrotation Xrotation
										End Site
										{
											OFFSET 0.000000 0.000000 0.000000
										}
									}
								}
								JOINT RightArmEnd
								{
									OFFSET 0.000000 0.000000 0.000000
									CHANNELS 3 Zrotation Yrotation Xrotation
									End Site
									{
										OFFSET 0.000000 0.000000 0.000000
									}
								}
							}
						}
					}
					JOINT LeftShoulder
					{
						OFFSET 2.625389 11.175210 0.000000
						CHANNELS 3 Zrotation Yrotation Xrotation
						JOINT LeftArm
						{
							OFFSET 0.000000 10.813635 -0.000000
							CHANNELS 3 Zrotation Yrotation Xrotation
							JOINT LeftForeArm
							{
								OFFSET 0.000000 28.724781 0.000000
								CHANNELS 3 Zrotation Yrotation Xrotation
								JOINT LeftHand
								{
									OFFSET 0.644384 25.716167 -0.328871
									CHANNELS 3 Zrotation Yrotation Xrotation
									JOINT LeftHandThumb1
									{
										OFFSET 2.867323 3.959563 2.944291
										CHANNELS 3 Zrotation Yrotation Xrotation
										JOINT LeftHandThumb2
										{
											OFFSET 0.000000 3.350399 0.000000
											CHANNELS 3 Zrotation Yrotation Xrotation
											JOINT LeftHandThumb3
											{
												OFFSET -0.000000 3.756509 0.000000
												CHANNELS 3 Zrotation Yrotation Xrotation
												JOINT LeftHandThumb4
												{
													OFFSET -0.000000 3.100000 0.000000
													CHANNELS 3 Zrotation Yrotation Xrotation
													End Site
													{
														OFFSET 0.000000 0.000000 0.000000
													}
												}
											}
										}
									}
									JOINT LeftHandIndex1
									{
										OFFSET 0.086752 10.030893 2.345280
										CHANNELS 3 Zrotation Yrotation Xrotation
										JOINT LeftHandIndex2
										{
											OFFSET -0.000000 4.061090 -0.000000
											CHANNELS 3 Zrotation Yrotation Xrotation
											JOINT LeftHandIndex3
											{
												OFFSET 0.000000 3.248873 -0.000000
												CHANNELS 3 Zrotation Yrotation Xrotation
												JOINT LeftHandIndex4
												{
													OFFSET 0.000000 2.639709 -0.000000
													CHANNELS 3 Zrotation Yrotation Xrotation
													End Site
													{
														OFFSET 0.000000 0.000000 0.000000
													}
												}
											}
										}
									}
									JOINT LeftHandMiddle1
									{
										OFFSET -0.104102 9.502952 0.006768
										CHANNELS 3 Zrotation Yrotation Xrotation
										JOINT LeftHandMiddle2
										{
											OFFSET -0.000000 4.568727 -0.000000
											CHANNELS 3 Zrotation Yrotation Xrotation
											JOINT LeftHandMiddle3
											{
												OFFSET 0.000000 3.654981 0.000000
												CHANNELS 3 Zrotation Yrotation Xrotation
												JOINT LeftHandMiddle4
												{
													OFFSET 0.000000 2.741236 -0.000000
													CHANNELS 3 Zrotation Yrotation Xrotation
													End Site
													{
														OFFSET 0.000000 0.000000 0.000000
													}
												}
											}
										}
									}
									JOINT LeftHandRing1
									{
										OFFSET -0.086752 8.921708 -2.267442
										CHANNELS 3 Zrotation Yrotation Xrotation
										JOINT LeftHandRing2
										{
											OFFSET 0.000000 4.061090 0.000000
											CHANNELS 3 Zrotation Yrotation Xrotation
											JOINT LeftHandRing3
											{
												OFFSET 0.000000 3.654981 0.000000
												CHANNELS 3 Zrotation Yrotation Xrotation
												JOINT LeftHandRing4
												{
													OFFSET 0.000000 2.741236 0.000000
													CHANNELS 3 Zrotation Yrotation Xrotation
													End Site
													{
														OFFSET 0.000000 0.000000 0.000000
													}
												}
											}
										}
									}
									JOINT LeftHandPinky1
									{
										OFFSET 0.173504 7.976997 -4.467199
										CHANNELS 3 Zrotation Yrotation Xrotation
										JOINT LeftHandPinky2
										{
											OFFSET -0.000000 3.350399 -0.000000
											CHANNELS 3 Zrotation Yrotation Xrotation
											JOINT LeftHandPinky3
											{
												OFFSET 0.000000 2.842763 0.000000
												CHANNELS 3 Zrotation Yrotation Xrotation
												JOINT LeftHandPinky4
												{
													OFFSET -0.000000 2.639709 -0.000000
													CHANNELS 3 Zrotation Yrotation Xrotation
													End Site
													{
														OFFSET 0.000000 0.000000 0.000000
													}
												}
											}
										}
									}
									JOINT LeftForeArmEnd
									{
										OFFSET 0.000000 0.000000 0.000000
										CHANNELS 3 Zrotation Yrotation Xrotation
										End Site
										{
											OFFSET 0.000000 0.000000 0.000000
										}
									}
								}
								JOINT LeftArmEnd
								{
									OFFSET 0.000000 0.000000 0.000000
									CHANNELS 3 Zrotation Yrotation Xrotation
									End Site
									{
										OFFSET 0.000000 0.000000 0.000000
									}
								}
							}
						}
					}
				}
			}
		}
	}
	JOINT RightUpLeg
	{
		OFFSET -11.289943 0.000000 0.000000
		CHANNELS 3 Zrotation Yrotation Xrotation
		JOINT RightLeg
		{
			OFFSET 0.000000 -38.200325 0.000000
			CHANNELS 3 Zrotation Yrotation Xrotation
			JOINT RightFoot
			{
				OFFSET -0.000000 -39.900856 -0.000000
				CHANNELS 3 Zrotation Yrotation Xrotation
				JOINT RightToeBase
				{
					OFFSET 0.000000 0.000000 15.261641
					CHANNELS 3 Zrotation Yrotation Xrotation
					JOINT RightToeBaseEnd
					{
						OFFSET 0.000000 0.000000 7.370709
						CHANNELS 3 Zrotation Yrotation Xrotation
						End Site
						{
							OFFSET 0.000000 0.000000 0.000000
						}
					}
				}
				JOINT RightLegEnd
				{
					OFFSET 0.000000 0.000000 0.000000
					CHANNELS 3 Zrotation Yrotation Xrotation
					End Site
					{
						OFFSET 0.000000 0.000000 0.000000
					}
				}
			}
			JOINT RightUpLegEnd
			{
				OFFSET 0.000000 0.000000 0.000000
				CHANNELS 3 Zrotation Yrotation Xrotation
				End Site
				{
					OFFSET 0.000000 0.000000 0.000000
				}
			}
		}
	}
	JOINT LeftUpLeg
	{
		OFFSET 11.315661 -0.000000 0.000000
		CHANNELS 3 Zrotation Yrotation Xrotation
		JOINT LeftLeg
		{
			OFFSET -0.000000 -38.200325 -0.000000
			CHANNELS 3 Zrotation Yrotation Xrotation
			JOINT LeftFoot
			{
				OFFSET 0.000000 -39.900856 -0.000000
				CHANNELS 3 Zrotation Yrotation Xrotation
				JOINT LeftToeBase
				{
					OFFSET -0.000000 -0.000000 15.261641
					CHANNELS 3 Zrotation Yrotation Xrotation
					JOINT LeftToeBaseEnd
					{
						OFFSET 0.000000 -0.000000 7.539996
						CHANNELS 3 Zrotation Yrotation Xrotation
						End Site
						{
							OFFSET 0.000000 0.000000 0.000000
						}
					}
				}
				JOINT LeftLegEnd
				{
					OFFSET 0.000000 0.000000 0.000000
					CHANNELS 3 Zrotation Yrotation Xrotation
					End Site
					{
						OFFSET 0.000000 0.000000 0.000000
					}
				}
			}
			JOINT LeftUpLegEnd
			{
				OFFSET 0.000000 0.000000 0.000000
				CHANNELS 3 Zrotation Yrotation Xrotation
				End Site
				{
					OFFSET 0.000000 0.000000 0.000000
				}
			}
		}
	}
}
MOTION
Frames: 5
Frame Time: 0.016667
0.596879 88.801422 3.401154 0.535511 -0.829947 -10.785286 0.778888 0.304959 7.173258 -0.822555 0.411432 2.111022 -0.822197 0.619508 6.293957 -2.072816 0.585210 5.289248 1.294753 0.139725 6.991318 0.249276 0.154375 -2.104921 -0.243315 -1.022024 -20.504114 0.000000 0.000000 0.000000 91.018982 -0.275311 8.595135 66.962082 -15.588359 -0.495390 -0.769402 20.137329 81.191063 7.735981 23.577242 4.446053 17.459291 30.886875 64.516022 -5.824278 -7.462335 -13.243001 -4.243718 -4.853227 -8.931759 0.000000 0.000000 0.000000 -4.816947 -7.995736 10.347068 1.082574 0.441758 1.009209 0.589344 0.014418 1.060228 0.000000 0.000000 0.000000 -3.634221 -2.790673 5.692482 0.017635 0.484109 0.377378 0.815486 -0.011141 0.331967 0.000000 0.000000 0.000000 0.628023 4.467468 -0.573995 1.636583 -0.969264 -0.671165 1.698798 0.018504 -0.465920 0.000000 0.000000 0.000000 2.682853 12.526494 -7.781868 3.674039 -1.858679 -1.783479 3.394089 0.100314 -1.412647 0.000000 0.000000 0.000000 0.000000 0.000000 0.000000 0.000000 0.000000 0.000000 -89.762459 0.652330 2.817701 -73.528557 2.867003 -10.292582 -0.217649 -18.665833 88.716446 -22.733276 -27.393244 5.497789 -17.495031 -30.830038 64.325256 6.120824 7.543756 -13.404149 4.343712 5.139947 -9.433708 0.000000 0.000000 0.000000 -1.127760 -8.640712 12.269092 -2.011140 0.582121 -0.335582 -2.100671 0.105243 -0.397386 0.000000 0.000000 0.000000 -3.078355 -2.975535 6.778229 -2.571225 0.527598 -0.217452 -2.967941 0.030345 -0.186959 0.000000 0.000000 0.000000 -10.885517 6.207084 -0.348929 -6.869057 -0.993531 0.579746 -6.916668 -0.003599 0.453802 0.000000 0.000000 0.000000 -19.206177 15.978374 -8.204525 -11.421315 -1.798251 2.379295 -10.841637 0.208779 2.068606 0.000000 0.000000 0.000000 0.000000 0.000000 0.000000 0.000000 0.000000 0.000000 -2.210938 -9.424491 15.238660 -0.099988 -0.758572 5.157523 -2.258613 -6.902997 16.994392 -0.876159 0.889888 -18.925673 0.000000 0.000000 0.000000 0.000000 0.000000 0.000000 0.000000 0.000000 0.000000 -2.147965 -4.809768 9.509517 0.053233 0.307282 10.376102 4.166660 -1.222400 17.050531 0.146918 -0.354615 -21.292770 0.000000 0.000000 0.000000 0.000000 0.000000 0.000000 0.000000 0.000000 0.000000 
0.597484 88.798615 3.422214 0.526460 -0.823776 -10.792806 0.791646 0.298738 7.171302 -0.823183 0.408170 2.073436 -0.818324 0.609761 6.313727 -2.074909 0.579531 5.276021 1.268189 0.193547 6.939242 0.268069 0.215758 -2.125528 -0.257356 -1.034520 -20.487793 0.000000 0.000000 0.000000 90.969696 -0.271402 8.631801 66.932014 -15.458912 -0.495546 -0.771839 20.174866 81.272606 7.827944 23.623857 4.528863 17.464121 30.883627 64.510139 -5.833895 -7.472703 -13.264255 -4.250158 -4.858794 -8.947178 0.000000 0.000000 0.000000 -4.723119 -8.009775 10.293475 1.087199 0.445087 0.998460 0.593096 0.017718 1.051271 0.000000 0.000000 0.000000 -3.542534 -2.807071 5.670624 0.030093 0.485787 0.372794 0.831314 -0.009697 0.328275 0.000000 0.000000 0.000000 0.730657 4.449244 -0.567385 1.665290 -0.972586 -0.663854 1.725111 0.016198 -0.460727 0.000000 0.000000 0.000000 2.784112 12.511194 -7.731853 3.713716 -1.868576 -1.761116 3.428423 0.092279 -1.395474 0.000000 0.000000 0.000000 0.000000 0.000000 0.000000 0.000000 0.000000 0.000000 -89.731133 0.648010 2.823797 -73.466125 2.884238 -10.258760 -0.226235 -18.657431 88.725868 -22.515444 -27.328165 5.453656 -17.512516 -30.821821 64.300072 6.148489 7.582824 -13.470817 4.365148 5.166413 -9.482758 0.000000 0.000000 0.000000 -1.309260 -8.604251 12.186913 -2.043457 0.584526 -0.334864 -2.132751 0.107909 -0.396310 0.000000 0.000000 0.000000 -3.230489 -2.947865 6.724195 -2.605726 0.529459 -0.216544 -2.999754 0.031792 -0.186238 0.000000 0.000000 0.000000 -10.994560 6.224528 -0.362678 -6.904681 -0.995350 0.579766 -6.952462 -0.004654 0.453375 0.000000 0.000000 0.000000 -19.272709 15.985902 -8.149836 -11.451126 -1.802805 2.377811 -10.876234 0.205325 2.069083 0.000000 0.000000 0.000000 0.000000 0.000000 0.000000 0.000000 0.000000 0.000000 -2.216675 -9.453219 15.274764 -0.099800 -0.758660 5.165148 -2.246807 -6.932498 16.991819 -0.880680 0.892921 -18.910547 0.000000 0.000000 0.000000 0.000000 0.000000 0.000000 0.000000 0.000000 0.000000 -2.126140 -4.833508 9.519430 0.053097 0.308767 10.415854 4.146823 -1.266569 17.025732 0.147395 -0.353740 -21.290205 0.000000 0.000000 0.000000 0.000000 0.000000 0.000000 0.000000 0.000000 0.000000 
0.598077 88.794640 3.442423 0.510738 -0.830905 -10.806826 0.808422 0.292029 7.170599 -0.826349 0.405078 2.039363 -0.803528 0.592212 6.330645 -2.073899 0.573038 5.261641 1.247926 0.243808 6.888193 0.289686 0.280171 -2.142159 -0.270911 -1.047310 -20.474154 0.000000 0.000000 0.000000 90.917404 -0.265243 8.676144 66.899147 -15.319093 -0.483904 -0.776996 20.201984 81.371735 7.915602 23.658909 4.598106 17.468950 30.880257 64.503738 -5.844108 -7.483511 -13.286521 -4.257082 -4.864350 -8.963611 0.000000 0.000000 0.000000 -4.636865 -8.024384 10.242382 1.094892 0.447540 0.988217 0.599296 0.020163 1.042707 0.000000 0.000000 0.000000 -3.459550 -2.822915 5.646530 0.044424 0.487073 0.368330 0.849577 -0.008535 0.324658 0.000000 0.000000 0.000000 0.822442 4.433179 -0.564846 1.695521 -0.975240 -0.657084 1.750999 0.014372 -0.455933 0.000000 0.000000 0.000000 2.868548 12.499099 -7.688848 3.751935 -1.876473 -1.740964 3.460731 0.085841 -1.379324 0.000000 0.000000 0.000000 0.000000 0.000000 0.000000 0.000000 0.000000 0.000000 -89.695198 0.644672 2.838643 -73.393845 2.891540 -10.205472 -0.231320 -18.640335 88.743286 -22.298677 -27.255215 5.366023 -17.529840 -30.813908 64.275391 6.174860 7.621471 -13.535914 4.385722 5.192831 -9.530318 0.000000 0.000000 0.000000 -1.474263 -8.571724 12.107227 -2.074610 0.585577 -0.337160 -2.164112 0.109272 -0.397684 0.000000 0.000000 0.000000 -3.364002 -2.923167 6.668126 -2.639495 0.530696 -0.216799 -3.031888 0.032705 -0.186337 0.000000 0.000000 0.000000 -11.080377 6.239706 -0.384727 -6.940669 -0.996255 0.580601 -6.988561 -0.005065 0.453749 0.000000 0.000000 0.000000 -19.311760 15.994037 -8.112499 -11.482126 -1.804844 2.378775 -10.910356 0.203859 2.071281 0.000000 0.000000 0.000000 0.000000 0.000000 0.000000 0.000000 0.000000 0.000000 -2.212895 -9.476304 15.315457 -0.099421 -0.758254 5.172728 -2.236585 -6.958990 16.992468 -0.885043 0.895987 -18.894369 0.000000 0.000000 0.000000 0.000000 0.000000 0.000000 0.000000 0.000000 0.000000 -2.096210 -4.860124 9.534587 0.053139 0.310187 10.467874 4.125865 -1.307518 16.989519 0.148123 -0.353225 -21.284496 0.000000 0.000000 0.000000 0.000000 0.000000 0.000000 0.000000 0.000000 0.000000 
0.598664 88.789665 3.461248 0.489407 -0.849593 -10.826243 0.828726 0.285082 7.171618 -0.832313 0.402391 2.009466 -0.779780 0.570208 6.345398 -2.070986 0.567052 5.245997 1.233355 0.289291 6.832937 0.313195 0.344579 -2.157904 -0.283862 -1.060405 -20.460943 0.000000 0.000000 0.000000 90.863579 -0.257211 8.728780 66.864502 -15.176103 -0.462371 -0.783783 20.217533 81.485245 8.003696 23.694979 4.657692 17.474911 30.876497 64.495522 -5.855897 -7.497178 -13.313300 -4.265310 -4.871618 -8.983617 0.000000 0.000000 0.000000 -4.549389 -8.040709 10.186364 1.108803 0.449168 0.978264 0.611301 0.021802 1.034286 0.000000 0.000000 0.000000 -3.376911 -2.839443 5.614607 0.063721 0.488016 0.363970 0.873793 -0.007641 0.321089 0.000000 0.000000 0.000000 0.911148 4.418195 -0.568780 1.730706 -0.977294 -0.650700 1.780092 0.012990 -0.451420 0.000000 0.000000 0.000000 2.944722 12.489459 -7.651824 3.792292 -1.882443 -1.722449 3.494585 0.081015 -1.364028 0.000000 0.000000 0.000000 0.000000 0.000000 0.000000 0.000000 0.000000 0.000000 -89.655037 0.641394 2.862933 -73.315468 2.899594 -10.134296 -0.231919 -18.611404 88.781509 -22.089773 -27.173971 5.252007 -17.548216 -30.806131 64.250481 6.200511 7.661640 -13.602490 4.406075 5.220700 -9.578239 0.000000 0.000000 0.000000 -1.632756 -8.541741 12.027609 -2.108727 0.585298 -0.341617 -2.198335 0.109338 -0.400762 0.000000 0.000000 0.000000 -3.489300 -2.900089 6.610211 -2.677543 0.531351 -0.217900 -3.068479 0.033103 -0.187002 0.000000 0.000000 0.000000 -11.156501 6.254650 -0.410634 -6.983755 -0.996310 0.582108 -7.032045 -0.004833 0.454714 0.000000 0.000000 0.000000 -19.338318 16.004671 -8.085200 -11.522009 -1.804329 2.381670 -10.951495 0.204421 2.074770 0.000000 0.000000 0.000000 0.000000 0.000000 0.000000 0.000000 0.000000 0.000000 -2.201256 -9.494763 15.358532 -0.098919 -0.757398 5.181533 -2.228194 -6.983510 16.996506 -0.889085 0.899054 -18.877855 0.000000 0.000000 0.000000 0.000000 0.000000 0.000000 0.000000 0.000000 0.000000 -2.060040 -4.888591 9.552910 0.053282 0.311244 10.531574 4.105390 -1.345022 16.944229 0.148797 -0.352757 -21.276739 0.000000 0.000000 0.000000 0.000000 0.000000 0.000000 0.000000 0.000000 0.000000 
0.599083 88.783836 3.478513 0.463913 -0.877664 -10.850224 0.852077 0.278053 7.174665 -0.841823 0.400496 1.983571 -0.748551 0.546761 6.359159 -2.066661 0.562727 5.228376 1.223075 0.329315 6.770989 0.337808 0.406301 -2.174687 -0.295736 -1.073996 -20.447071 0.000000 0.000000 0.000000 90.809723 -0.247541 8.788917 66.826881 -15.035400 -0.433380 -0.791971 20.219652 81.610672 8.098674 23.732916 4.708639 17.483284 30.871954 64.483902 -5.870439 -7.516459 -13.348832 -4.275755 -4.882626 -9.010211 0.000000 0.000000 0.000000 -4.449746 -8.060329 10.118233 1.132956 0.449979 0.968673 0.633230 0.022621 1.026063 0.000000 0.000000 0.000000 -3.284079 -2.858283 5.569743 0.091832 0.488650 0.359762 0.908225 -0.007004 0.317620 0.000000 0.000000 0.000000 1.006122 4.402959 -0.581123 1.775070 -0.978834 -0.644619 1.817138 0.012023 -0.447097 0.000000 0.000000 0.000000 3.022165 12.481636 -7.618505 3.839733 -1.886653 -1.705163 3.534807 0.077786 -1.349478 0.000000 0.000000 0.000000 0.000000 0.000000 0.000000 0.000000 0.000000 0.000000 -89.609779 0.637173 2.896220 -73.232819 2.921955 -10.044596 -0.227312 -18.568148 88.846443 -21.888254 -27.077526 5.122367 -17.569269 -30.798120 64.224106 6.226668 7.706051 -13.675119 4.427256 5.252025 -9.629410 0.000000 0.000000 0.000000 -1.799378 -8.511985 11.946106 -2.150729 0.583589 -0.347877 -2.239991 0.107982 -0.405253 0.000000 0.000000 0.000000 -3.620554 -2.876422 6.550824 -2.725893 0.531414 -0.219714 -3.114707 0.032961 -0.188151 0.000000 0.000000 0.000000 -11.239948 6.272053 -0.435149 -7.042556 -0.995494 0.584436 -7.091760 -0.003886 0.456238 0.000000 0.000000 0.000000 -19.371626 16.020056 -8.059253 -11.580423 -1.801021 2.386625 -11.009591 0.207267 2.079716 0.000000 0.000000 0.000000 0.000000 0.000000 0.000000 0.000000 0.000000 0.000000 -2.184334 -9.511079 15.402666 -0.098294 -0.756025 5.192750 -2.221772 -7.006469 17.002483 -0.892514 0.901952 -18.861162 0.000000 0.000000 0.000000 0.000000 0.000000 0.000000 0.000000 0.000000 0.000000 -2.020086 -4.918406 9.572981 0.053496 0.311780 10.604938 4.087318 -1.381457 16.891363 0.149170 -0.352256 -21.267534 0.000000 0.000000 0.000000 0.000000 0.000000 0.000000 0.000000 0.000000 0.000000 
